# xmcd
#
# Track frame offsets:
#	150
#	18176
#	36626
#	54148
#	59730
#	73706
#	79723
#	94428
#	114178
#	121397
#	125970
#	142750
#	153696
#	167357
#
# Disc length: 2281 seconds
#
# Revision: 1
# Processed by: cddbd v1.5.1PL0 Copyright (c) Steve Scherf et al.
# Submitted via: audiograbber 1.80
#
DISCID=c008e70e
DTITLE=Tweed Twangers - Airin' Our Laundry
DYEAR=1900
DGENRE=
TTITLE0=Disappearing Outhouse Blues
TTITLE1=Woodsplittin' Witness
TTITLE2=Keep Your Shoes On Rose
TTITLE3=Stevie Fender Song
TTITLE4=1990's Man
TTITLE5=Grandma's Family Wash Recipe
TTITLE6=Tubilly-Ub Scratchilly-Ach
TTITLE7=Hamburger Hal
TTITLE8=Mole In The Ground
TTITLE9=Iraqi Beaver Song Introduction
TTITLE10=Iraqi Beaver Song
TTITLE11=Tweedsmuir Lament
TTITLE12=Grandma's Possum Stew
TTITLE13=Dinner Prayer
EXTD=
EXTT0=
EXTT1=
EXTT2=
EXTT3=
EXTT4=
EXTT5=
EXTT6=
EXTT7=
EXTT8=
EXTT9=
EXTT10=
EXTT11=
EXTT12=
EXTT13=
PLAYORDER=
